<svg width="64" height="64" viewBox="0 0 64 64" fill="none" xmlns="http://www.w3.org/2000/svg">
  <rect width="64" height="64" rx="12" fill="#2E7D32"/>
  <path d="M42 26V20C42 14.48 37.52 10 32 10C26.48 10 22 14.48 22 20V26H20C17.79 26 16 27.79 16 30V48C16 50.21 17.79 52 20 52H44C46.21 52 48 50.21 48 48V30C48 27.79 46.21 26 44 26H42ZM26 20C26 16.69 28.69 14 32 14C35.31 14 38 16.69 38 20V26H26V20ZM32 44C30.34 44 29 42.66 29 41C29 39.34 30.34 38 32 38C33.66 38 35 39.34 35 41C35 42.66 33.66 44 32 44Z" fill="white"/>
  <text x="23" y="44" font-family="Arial, Helvetica, sans-serif" font-size="18" font-weight="bold" fill="white">K</text>
</svg>
 